<mxfile host="Electron" modified="2023-11-07T09:18:45.600Z" agent="Mozilla/5.0 (X11; Linux x86_64) AppleWebKit/537.36 (KHTML, like Gecko) draw.io/22.0.3 Chrome/114.0.5735.289 Electron/25.8.4 Safari/537.36" etag="qdBi4qbc_rwF_Qx9w10H" version="22.0.3" type="device">
  <diagram name="Page-1" id="Q-cIpxSjMEDpxBwyMpbL">
    <mxGraphModel dx="1434" dy="838" grid="1" gridSize="10" guides="1" tooltips="1" connect="1" arrows="1" fold="1" page="1" pageScale="1" pageWidth="850" pageHeight="1100" math="0" shadow="0">
      <root>
        <mxCell id="0" />
        <mxCell id="1" parent="0" />
        <mxCell id="jYIynfoZd4AzcCaLZrFw-6" style="edgeStyle=orthogonalEdgeStyle;rounded=0;orthogonalLoop=1;jettySize=auto;html=1;exitX=0.5;exitY=1;exitDx=0;exitDy=0;entryX=0.5;entryY=0;entryDx=0;entryDy=0;" edge="1" parent="1" source="jYIynfoZd4AzcCaLZrFw-1" target="jYIynfoZd4AzcCaLZrFw-2">
          <mxGeometry relative="1" as="geometry" />
        </mxCell>
        <mxCell id="jYIynfoZd4AzcCaLZrFw-7" style="edgeStyle=orthogonalEdgeStyle;rounded=0;orthogonalLoop=1;jettySize=auto;html=1;exitX=0.5;exitY=1;exitDx=0;exitDy=0;" edge="1" parent="1" source="jYIynfoZd4AzcCaLZrFw-1" target="jYIynfoZd4AzcCaLZrFw-3">
          <mxGeometry relative="1" as="geometry" />
        </mxCell>
        <mxCell id="jYIynfoZd4AzcCaLZrFw-1" value="Social network posts" style="rounded=0;whiteSpace=wrap;html=1;fontSize=14;" vertex="1" parent="1">
          <mxGeometry x="340" y="40" width="170" height="40" as="geometry" />
        </mxCell>
        <mxCell id="jYIynfoZd4AzcCaLZrFw-10" style="edgeStyle=orthogonalEdgeStyle;rounded=0;orthogonalLoop=1;jettySize=auto;html=1;exitX=0.5;exitY=1;exitDx=0;exitDy=0;" edge="1" parent="1" source="jYIynfoZd4AzcCaLZrFw-2" target="jYIynfoZd4AzcCaLZrFw-4">
          <mxGeometry relative="1" as="geometry" />
        </mxCell>
        <mxCell id="jYIynfoZd4AzcCaLZrFw-2" value="Sentiment analysis" style="rounded=0;whiteSpace=wrap;html=1;fontSize=14;" vertex="1" parent="1">
          <mxGeometry x="190" y="140" width="140" height="40" as="geometry" />
        </mxCell>
        <mxCell id="jYIynfoZd4AzcCaLZrFw-11" style="edgeStyle=orthogonalEdgeStyle;rounded=0;orthogonalLoop=1;jettySize=auto;html=1;exitX=0.5;exitY=1;exitDx=0;exitDy=0;" edge="1" parent="1" source="jYIynfoZd4AzcCaLZrFw-3" target="jYIynfoZd4AzcCaLZrFw-4">
          <mxGeometry relative="1" as="geometry" />
        </mxCell>
        <mxCell id="jYIynfoZd4AzcCaLZrFw-3" value="Topic modeling" style="rounded=0;whiteSpace=wrap;html=1;fontSize=14;" vertex="1" parent="1">
          <mxGeometry x="520" y="140" width="140" height="40" as="geometry" />
        </mxCell>
        <mxCell id="jYIynfoZd4AzcCaLZrFw-12" style="edgeStyle=orthogonalEdgeStyle;rounded=0;orthogonalLoop=1;jettySize=auto;html=1;exitX=0.5;exitY=1;exitDx=0;exitDy=0;" edge="1" parent="1" source="jYIynfoZd4AzcCaLZrFw-4" target="jYIynfoZd4AzcCaLZrFw-5">
          <mxGeometry relative="1" as="geometry" />
        </mxCell>
        <mxCell id="jYIynfoZd4AzcCaLZrFw-4" value="Fuzzy aggregation" style="rounded=0;whiteSpace=wrap;html=1;fontSize=14;" vertex="1" parent="1">
          <mxGeometry x="355" y="240" width="140" height="40" as="geometry" />
        </mxCell>
        <mxCell id="jYIynfoZd4AzcCaLZrFw-5" value="Amount calculation" style="rounded=0;whiteSpace=wrap;html=1;fontSize=14;" vertex="1" parent="1">
          <mxGeometry x="355" y="330" width="140" height="40" as="geometry" />
        </mxCell>
        <mxCell id="jYIynfoZd4AzcCaLZrFw-16" style="edgeStyle=orthogonalEdgeStyle;rounded=0;orthogonalLoop=1;jettySize=auto;html=1;exitX=0.5;exitY=1;exitDx=0;exitDy=0;entryX=0.75;entryY=0;entryDx=0;entryDy=0;" edge="1" parent="1" source="jYIynfoZd4AzcCaLZrFw-15" target="jYIynfoZd4AzcCaLZrFw-3">
          <mxGeometry relative="1" as="geometry" />
        </mxCell>
        <mxCell id="jYIynfoZd4AzcCaLZrFw-15" value="k&lt;br&gt;(no. of topics)" style="rounded=1;whiteSpace=wrap;html=1;fillStyle=dots;dashed=1;perimeterSpacing=0;" vertex="1" parent="1">
          <mxGeometry x="580" y="40" width="90" height="40" as="geometry" />
        </mxCell>
        <mxCell id="jYIynfoZd4AzcCaLZrFw-18" style="edgeStyle=orthogonalEdgeStyle;rounded=0;orthogonalLoop=1;jettySize=auto;html=1;exitX=1;exitY=0.5;exitDx=0;exitDy=0;" edge="1" parent="1" source="jYIynfoZd4AzcCaLZrFw-17" target="jYIynfoZd4AzcCaLZrFw-4">
          <mxGeometry relative="1" as="geometry" />
        </mxCell>
        <mxCell id="jYIynfoZd4AzcCaLZrFw-17" value="s&lt;br&gt;(scaling constant)" style="rounded=1;whiteSpace=wrap;html=1;fillStyle=dots;dashed=1;perimeterSpacing=0;" vertex="1" parent="1">
          <mxGeometry x="180" y="240" width="110" height="40" as="geometry" />
        </mxCell>
        <mxCell id="jYIynfoZd4AzcCaLZrFw-20" style="edgeStyle=orthogonalEdgeStyle;rounded=0;orthogonalLoop=1;jettySize=auto;html=1;exitX=1;exitY=0.5;exitDx=0;exitDy=0;entryX=0;entryY=0.5;entryDx=0;entryDy=0;" edge="1" parent="1" source="jYIynfoZd4AzcCaLZrFw-19" target="jYIynfoZd4AzcCaLZrFw-5">
          <mxGeometry relative="1" as="geometry" />
        </mxCell>
        <mxCell id="jYIynfoZd4AzcCaLZrFw-19" value="μ&lt;sub&gt;POS&lt;/sub&gt;, μ&lt;sub&gt;NEG&lt;/sub&gt;" style="rounded=1;whiteSpace=wrap;html=1;fillStyle=dots;dashed=1;perimeterSpacing=0;" vertex="1" parent="1">
          <mxGeometry x="180" y="330" width="110" height="40" as="geometry" />
        </mxCell>
      </root>
    </mxGraphModel>
  </diagram>
</mxfile>
